<svg aria-hidden="true" xmlns="http://www.w3.org/2000/svg" overflow="hidden">version=&quot;1.1&quot; xmlns=&quot;http://www.w3.org/2000/svg&quot; xmlns:xlink=&quot;http://www.w3.org/1999/xlink&quot;&gt;<defs><symbol id="icon-facebook"><path d="M20 2H4c-1.1 0-2 .9-2 2v16c0 1.1.9 2 2 2h16c1.1 0 2-.9 2-2V4c0-1.1-.9-2-2-2zm-1.6 5.4H17c-.9 0-1 .3-1 1v1.3h2.1L18 12h-1.9v7h-3.2v-7h-1.2V9.6h1.2V8.1c0-2 .8-3.1 3.1-3.1h2.4v2.4z"/></symbol><symbol id="icon-instagram"><path d="M8 3a5 5 0 00-5 5v8a5 5 0 005 5h8a5 5 0 005-5V8a5 5 0 00-5-5H8zm10 2a1 1 0 110 2 1 1 0 010-2zm-6 2a5 5 0 11-.001 10.001A5 5 0 0112 7zm0 2a3 3 0 00-3 3 3 3 0 003 3 3 3 0 003-3 3 3 0 00-3-3z"/></symbol><symbol id="icon-youtube"><path d="M21.582 6.186a2.506 2.506 0 00-1.768-1.768C18.254 4 12 4 12 4s-6.254 0-7.814.418c-.86.23-1.538.908-1.768 1.768C2 7.746 2 12 2 12s0 4.254.418 5.814c.23.86.908 1.538 1.768 1.768C5.746 20 12 20 12 20s6.254 0 7.814-.418a2.504 2.504 0 001.768-1.768C22 16.254 22 12 22 12s0-4.254-.418-5.814zM10 14.598V9.402a.5.5 0 01.75-.433l4.5 2.598a.5.5 0 010 .866l-4.5 2.598a.5.5 0 01-.75-.433z"/></symbol><symbol id="icon-twitter"><path d="M20 2H4c-1.1 0-2 .9-2 2v16c0 1.1.9 2 2 2h16c1.1 0 2-.9 2-2V4c0-1.1-.9-2-2-2zm-2.4 6.8v.4c0 3.8-2.9 8.2-8.2 8.2-1.6 0-3.1-.5-4.4-1.3h.7c1.3 0 2.6-.5 3.6-1.2-1.3 0-2.3-.9-2.7-2 .2 0 .4.1.5.1.3 0 .5 0 .8-.1-1.3-.3-2.3-1.4-2.3-2.8.4.2.8.3 1.3.4C6.1 9.8 5.6 9 5.6 8c0-.5.1-1 .4-1.4 1.4 1.7 3.5 2.9 5.9 3 0-.2-.1-.4-.1-.7 0-1.6 1.3-2.9 2.9-2.9.8 0 1.6.3 2.1.9.7-.1 1.3-.4 1.8-.7-.2.7-.7 1.2-1.3 1.6.6-.1 1.1-.2 1.7-.5-.4.6-.9 1.1-1.4 1.5z"/></symbol></defs></svg>